<?xml version="1.0" encoding="utf-8"?>
<!-- Generator: Adobe Illustrator 24.0.0, SVG Export Plug-In . SVG Version: 6.00 Build 0)  -->
<svg version="1.1" id="Layer_1" xmlns="http://www.w3.org/2000/svg" xmlns:xlink="http://www.w3.org/1999/xlink" x="0px" y="0px"
	 viewBox="0 0 783.6 351.4" style="enable-background:new 0 0 783.6 351.4;" xml:space="preserve">
<style type="text/css">
	.st0{fill:none;}
	.st1{fill:#0BB5D4;}
	.st2{font-family:'Arial-Black';}
	.st3{font-size:73px;}
</style>
<rect x="-4" y="30" class="st0" width="783.6" height="274"/>
<text transform="matrix(0.8299 -1.448550e-02 1.745241e-02 0.9998 241.8276 93.6733)"><tspan x="0" y="0" class="st1 st2 st3">D</tspan><tspan x="56.8" y="0.8" class="st1 st2 st3">S</tspan><tspan x="109.5" y="1.6" class="st1 st2 st3">C</tspan><tspan x="166.2" y="2.2" class="st1 st2 st3">I</tspan><tspan x="194.6" y="2.6" class="st1 st2 st3"> </tspan><tspan x="219" y="3.1" class="st1 st2 st3">5</tspan><tspan x="267.7" y="3.8" class="st1 st2 st3">1</tspan><tspan x="316.3" y="4.5" class="st1 st2 st3">1</tspan><tspan x="-283.5" y="78.9" class="st1 st2 st3">P</tspan><tspan x="-230.8" y="79.5" class="st1 st2 st3">r</tspan><tspan x="-198.4" y="80.1" class="st1 st2 st3">o</tspan><tspan x="-149.7" y="80.8" class="st1 st2 st3">g</tspan><tspan x="-101" y="81.4" class="st1 st2 st3">r</tspan><tspan x="-68.6" y="82" class="st1 st2 st3">a</tspan><tspan x="-20" y="82.8" class="st1 st2 st3">m</tspan><tspan x="53" y="83.9" class="st1 st2 st3">m</tspan><tspan x="126" y="84.6" class="st1 st2 st3">i</tspan><tspan x="150.3" y="85.1" class="st1 st2 st3">n</tspan><tspan x="199" y="85.8" class="st1 st2 st3">g</tspan><tspan x="247.7" y="86.4" class="st1 st2 st3"> </tspan><tspan x="272" y="86.7" class="st1 st2 st3">i</tspan><tspan x="296.3" y="87.2" class="st1 st2 st3">n</tspan><tspan x="345" y="87.8" class="st1 st2 st3"> </tspan><tspan x="369.3" y="88.3" class="st1 st2 st3">P</tspan><tspan x="422" y="89" class="st1 st2 st3">y</tspan><tspan x="466.6" y="89.6" class="st1 st2 st3">t</tspan><tspan x="499" y="90.2" class="st1 st2 st3">h</tspan><tspan x="547.7" y="90.9" class="st1 st2 st3">o</tspan><tspan x="596.3" y="91.6" class="st1 st2 st3">n</tspan><tspan x="-153.8" y="176.6" class="st1 st2 st3">f</tspan><tspan x="-125.4" y="177.2" class="st1 st2 st3">o</tspan><tspan x="-76.7" y="177.7" class="st1 st2 st3">r</tspan><tspan x="-44.3" y="178.2" class="st1 st2 st3"> </tspan><tspan x="-20" y="178.7" class="st1 st2 st3">D</tspan><tspan x="36.8" y="179.5" class="st1 st2 st3">a</tspan><tspan x="85.5" y="180.1" class="st1 st2 st3">t</tspan><tspan x="117.9" y="180.7" class="st1 st2 st3">a</tspan><tspan x="166.5" y="181.2" class="st1 st2 st3"> </tspan><tspan x="190.9" y="181.8" class="st1 st2 st3">S</tspan><tspan x="243.6" y="182.5" class="st1 st2 st3">c</tspan><tspan x="292.3" y="183" class="st1 st2 st3">i</tspan><tspan x="316.6" y="183.6" class="st1 st2 st3">e</tspan><tspan x="365.2" y="184.3" class="st1 st2 st3">n</tspan><tspan x="413.9" y="185" class="st1 st2 st3">c</tspan><tspan x="462.6" y="185.7" class="st1 st2 st3">e</tspan></text>
</svg>
